<svg xmlns="http://www.w3.org/2000/svg" viewBox="0 0 36 36">
  <defs>
    <path id="motionPath" d="M11.5,29.5 Q18,32.5 24.5,29.5" fill="none" />
  </defs>
  
  <path fill="#D99E82" d="M18 3.143c-9.941 0-18 6.908-18 15.428 0 1.066.126 2.107.367 3.112C2.146 24.744 3.377 22.812 9 20c5.727-2.864 0 4-2 8-.615 1.23-.282 2.271.56 3.124C10.506 32.928 14.104 34 18 34c9.941 0 18-6.907 18-15.429 0-8.52-8.059-15.428-18-15.428zm2.849 24.447c-.395 1.346-2.46 1.924-4.613 1.291-2.153-.632-3.578-2.234-3.183-3.581.395-1.346 2.46-1.924 4.613-1.29 2.153.631 3.578 2.233 3.183 3.58z"/>
  
  <circle cx="10" cy="11" r="3">
    <animate attributeName="fill" dur="6s" repeatCount="indefinite"
             values="#5C913B;#FFCC4D;#DD2E44;#269;#5C913B" />
  </circle>
  <circle cx="20" cy="9" r="3">
    <animate attributeName="fill" dur="6s" repeatCount="indefinite"
             values="#269;#5C913B;#FFCC4D;#DD2E44;#269" />
  </circle>
  <circle cx="29" cy="15" r="3">
    <animate attributeName="fill" dur="6s" repeatCount="indefinite"
             values="#DD2E44;#269;#5C913B;#FFCC4D;#DD2E44" />
  </circle>
  <circle cx="28" cy="24" r="3">
    <animate attributeName="fill" dur="6s" repeatCount="indefinite"
             values="#FFCC4D;#DD2E44;#269;#5C913B;#FFCC4D" />
  </circle>
  
  <g>
    <animateMotion dur="8s" repeatCount="indefinite" keyPoints="0;1;0" keyTimes="0;0.5;1" calcMode="linear">
      <mpath href="#motionPath"/>
    </animateMotion>
    <text font-family="cursive" font-size="3" font-weight="bold" fill="black" x="-2.4" y="1.2">LL</text>
  </g>
</svg>