<svg xmlns="http://www.w3.org/2000/svg" viewBox="0 0 36 36">
  <style>
    /* Animate the eyes blinking */
    @keyframes blink {
      0%, 100% { transform: scaleY(1); }
      50% { transform: scaleY(0); }
    }
    /* Animate the smile widening and narrowing */
    @keyframes smile {
      0%, 100% { transform: scaleX(1); }
      50% { transform: scaleX(1.1); }
    }
    /* Animate the face moving up and down slightly */
    @keyframes face-move {
      0%, 100% { transform: translateY(0); }
      50% { transform: translateY(1px); }
    }
    #eyes {
      transform-origin: 18px 18px;
      animation: blink 2s ease-in-out infinite;
    }
    #smile {
      transform-origin: 18px 25px;
      animation: smile 3s ease-in-out infinite;
    }
    #face {
      animation: face-move 3s ease-in-out infinite;
    }
  </style>
  <g id="face">
    <path fill="#FFCC4D" d="M36 18c0 9.941-8.059 18-18 18-9.94 0-18-8.059-18-18C0 8.06 8.06 0 18 0c9.941 0 18 8.06 18 18"/>
  </g>
  <g id="eyes">
    <path fill="#664500" d="M28.457 17.797c-.06-.135-1.499-3.297-4.457-3.297-2.957 0-4.397 3.162-4.457 3.297-.092.207-.032.449.145.591.175.142.426.147.61.014.012-.009 1.262-.902 3.702-.902 2.426 0 3.674.881 3.702.901.088.066.194.099.298.099.11 0 .221-.037.312-.109.177-.142.238-.386.145-.594zm-12 0c-.06-.135-1.499-3.297-4.457-3.297-2.957 0-4.397 3.162-4.457 3.297-.092.207-.032.449.144.591.176.142.427.147.61.014.013-.009 1.262-.902 3.703-.902 2.426 0 3.674.881 3.702.901.088.066.194.099.298.099.11 0 .221-.037.312-.109.178-.142.237-.386.145-.594"/>
  </g>
  <g id="smile">
    <path fill="#664500" d="M18 22c-3.623 0-6.027-.422-9-1-.679-.131-2 0-2 2 0 4 4.595 9 11 9 6.404 0 11-5 11-9 0-2-1.321-2.132-2-2-2.973.578-5.377 1-9 1z"/>
    <path fill="#FFF" d="M9 23s3 1 9 1 9-1 9-1-2 4-9 4-9-4-9-4z"/>
  </g>
</svg>